<?xml version="1.0" standalone="no"?>
<!DOCTYPE svg PUBLIC "-//W3C//DTD SVG 20010904//EN"
 "http://www.w3.org/TR/2001/REC-SVG-20010904/DTD/svg10.dtd">
<svg version="1.0" xmlns="http://www.w3.org/2000/svg"
 width="1920.000000pt" height="1080.000000pt" viewBox="0 0 1920.000000 1080.000000"
 preserveAspectRatio="xMidYMid meet">
<metadata>
Created by potrace 1.16, written by Peter Selinger 2001-2019
</metadata>
<g transform="translate(0.000000,1080.000000) scale(0.100000,-0.100000)"
fill="#000000" stroke="none">
<path d="M3944 8096 c-18 -14 -19 -29 -19 -358 0 -189 3 -343 6 -343 4 0 16
-9 28 -19 17 -16 21 -30 21 -85 -1 -91 -25 -260 -39 -274 -6 -6 -11 -16 -11
-22 0 -5 5 -3 10 5 7 11 9 4 9 -25 -1 -34 -2 -36 -9 -15 -14 48 -17 -124 -16
-1185 0 -1076 3 -1311 17 -1225 l7 45 0 -50 c0 -27 2 -57 5 -65 7 -17 25 -203
29 -295 l3 -60 -1535 -2 c-844 -1 -1559 -5 -1587 -8 l-53 -6 0 -61 c0 -52 2
-59 15 -48 16 14 21 7 29 -41 2 -15 16 -38 31 -53 16 -17 25 -34 22 -45 -3
-14 0 -17 15 -13 24 6 39 -15 32 -44 -3 -12 -1 -25 5 -29 6 -3 8 -11 5 -17 -4
-6 -2 -8 4 -4 6 3 23 -6 37 -20 15 -15 30 -23 34 -17 3 5 17 17 31 26 23 16
195 17 2571 17 2436 0 2547 1 2567 18 19 17 20 29 21 180 l2 162 -23 0 c-13 0
-477 1 -1033 3 -1003 2 -1010 2 -1010 22 0 18 7 20 73 22 40 2 93 9 118 18 25
8 65 15 89 15 31 0 45 4 45 14 0 9 30 16 112 24 100 11 114 10 130 -5 15 -14
24 -14 58 -4 22 6 39 15 39 19 -1 4 2 17 6 30 7 19 14 22 66 22 32 0 61 -4 64
-10 3 -5 1 -10 -6 -10 -7 0 -4 -7 7 -15 10 -8 15 -15 9 -15 -5 0 1 -7 13 -16
22 -15 29 -15 90 1 59 16 71 16 102 3 26 -11 43 -12 69 -4 30 9 36 7 55 -15
20 -23 36 -27 164 -43 159 -19 189 -15 172 28 -5 14 -10 47 -11 75 -2 28 -6
51 -10 51 -4 0 -6 9 -4 19 2 11 -3 25 -11 32 -24 20 -15 147 10 132 14 -9 -14
27 -37 47 -18 15 -30 87 -15 92 4 2 1 16 -7 32 -8 15 -15 34 -15 40 0 6 -9 29
-20 50 -20 41 -26 104 -16 174 6 37 5 42 -13 42 -40 0 -72 93 -36 106 8 4 15
11 15 17 0 5 -9 2 -20 -8 -25 -23 -38 -12 -50 38 -12 54 -2 87 26 87 12 0 25
4 29 9 3 6 -4 8 -15 6 -11 -2 -20 0 -20 6 0 5 -8 9 -19 9 -28 0 -37 18 -49 98
-6 43 -18 82 -28 93 -10 12 -19 41 -22 74 -3 31 -9 55 -16 55 -14 0 -77 118
-76 143 0 10 5 27 10 37 9 16 6 21 -14 26 -28 7 -46 42 -46 90 0 25 -7 41 -26
57 -19 16 -26 33 -27 64 -1 26 -7 43 -14 43 -14 0 -23 13 -28 42 -3 13 -15 32
-29 43 -16 14 -26 35 -30 68 -4 27 -14 51 -22 54 -8 3 -14 13 -14 23 0 9 -11
30 -25 46 -13 15 -27 42 -31 59 -3 16 -12 37 -19 45 -7 8 -16 25 -19 38 -4 12
-11 22 -16 22 -18 0 -40 33 -40 59 0 16 -6 34 -14 40 -12 10 -22 42 -28 88 -1
7 -5 10 -9 7 -5 -2 -17 12 -28 33 -11 21 -20 34 -21 30 0 -13 -40 13 -40 27 0
7 -10 25 -22 39 -13 14 -34 42 -48 62 -14 20 -37 50 -52 66 -16 16 -28 36 -28
44 0 7 -8 16 -18 19 -10 4 -31 20 -47 36 -26 28 -28 33 -18 60 7 18 7 32 2 36
-5 3 -9 0 -9 -6 0 -6 -5 -8 -10 -5 -8 5 -7 11 1 21 10 12 9 13 -6 8 -13 -5
-16 -4 -11 4 4 7 2 12 -4 12 -6 0 -8 5 -5 10 4 6 1 9 -7 8 -7 -2 -12 4 -10 12
2 8 0 12 -3 8 -4 -4 -25 2 -46 12 -21 11 -45 20 -54 20 -8 0 -23 9 -32 20 -19
21 -48 26 -58 10 -11 -18 -25 0 -25 34 0 18 -7 55 -15 82 -12 39 -15 112 -15
349 0 165 4 314 8 330 5 17 7 36 5 43 -7 18 -183 17 -209 -2z m254 -1177 c0
-31 7 -67 16 -84 11 -21 16 -57 16 -126 0 -92 1 -98 25 -113 31 -21 23 -46
-16 -46 -28 0 -29 -1 -28 -47 1 -30 4 -37 6 -20 3 18 10 27 22 27 30 0 44 -25
36 -68 -3 -21 -2 -56 3 -79 5 -23 6 -47 1 -56 -5 -9 -4 -47 2 -91 10 -66 9
-79 -5 -101 -24 -37 -24 -509 1 -580 14 -43 15 -58 3 -124 -14 -83 -14 -83 -4
-124 7 -30 -12 -87 -30 -87 -16 0 -38 -38 -26 -45 6 -3 10 -2 10 3 0 6 9 8 20
5 23 -6 27 -45 6 -62 -11 -9 -18 -8 -30 4 -15 15 -16 15 -16 -5 0 -14 4 -19
13 -14 7 5 7 1 -2 -10 -11 -13 -12 -22 -4 -36 9 -13 9 -20 0 -29 -9 -9 -9 -14
2 -20 11 -7 12 -32 7 -127 -4 -66 -8 -139 -9 -164 -1 -25 -6 -51 -11 -59 -5
-7 -10 -52 -12 -99 -2 -47 -8 -90 -14 -96 -7 -7 -10 378 -10 1271 1 704 4
1284 8 1287 11 11 20 -28 20 -85z"/>
</g>
</svg>
